AnglesData
version=1
nRows=9
nColumns=2
inDegrees=no
endheader
time	ankle_angle_r
      0.00000000	     -1.39626340
      0.01000000	     -1.04719755
      0.02000000	     -0.69813170
      0.03000000	     -0.34906585
      0.04000000	     -0.00000000
      0.05000000	      0.34906585
      0.06000000	      0.69813170
      0.07000000	      1.04719755
      0.08000000	      1.39626340
